```xml
<mxfile host="app.diagrams.net" agent="Mozilla/5.0 (Windows NT 10.0; Win64; x64) AppleWebKit/537.36 (KHTML, like Gecko) Chrome/136.0.0.0 Safari/537.36" version="26.2.14">
  <diagram id="rtLEmMiHwqCQ2pVNqwXQ" name="Page-1">
    <mxGraphModel dx="1123" dy="714" grid="1" gridSize="10" guides="1" tooltips="1" connect="1" arrows="1" fold="1" page="1" pageScale="1" pageWidth="2000" pageHeight="850" math="0" shadow="0">
      <root>
        <mxCell id="0" />
        <mxCell id="1" parent="0" />
        <!-- Playlist Lifeline -->
        <mxCell id="bIZ90OsPnnWlnqj1VHfi-1" value="Playlist" style="shape=umlLifeline;perimeter=lifelinePerimeter;whiteSpace=wrap;container=1;dropTarget=0;collapsible=0;recursiveResize=0;outlineConnect=0;portConstraint=northsouth;newEdgeStyle={'edgeStyle':'elbowEdgeStyle','elbow':'horizontal','curved':0,'rounded':0};size=65;" vertex="1" parent="1">
          <mxGeometry x="20" y="20" width="1986" height="150" as="geometry" />
        </mxCell>
        <!-- LinkedList Lifeline -->
        <mxCell id="bIZ90OsPnnWlnqj1VHfi-2" value="LinkedList" style="shape=umlLifeline;perimeter=lifelinePerimeter;whiteSpace=wrap;container=1;dropTarget=0;collapsible=0;recursiveResize=0;outlineConnect=0;portConstraint=northsouth;newEdgeStyle={'edgeStyle':'elbowEdgeStyle','elbow':'horizontal','curved':0,'rounded':0};size=65;" vertex="1" parent="1">
          <mxGeometry x="20" y="220" width="1986" height="150" as="geometry" />
        </mxCell>
        <!-- Node Lifeline -->
        <mxCell id="bIZ90OsPnnWlnqj1VHfi-3" value="Node" style="shape=umlLifeline;perimeter=lifelinePerimeter;whiteSpace=wrap;container=1;dropTarget=0;collapsible=0;recursiveResize=0;outlineConnect=0;portConstraint=northsouth;newEdgeStyle={'edgeStyle':'elbowEdgeStyle','elbow':'horizontal','curved':0,'rounded':0};size=65;" vertex="1" parent="1">
          <mxGeometry x="20" y="420" width="1986" height="150" as="geometry" />
        </mxCell>
        <!-- Song Lifeline -->
        <mxCell id="bIZ90OsPnnWlnqj1VHfi-4" value="Song" style="shape=umlLifeline;perimeter=lifelinePerimeter;whiteSpace=wrap;container=1;dropTarget=0;collapsible=0;recursiveResize=0;outlineConnect=0;portConstraint=northsouth;newEdgeStyle={'edgeStyle':'elbowEdgeStyle','elbow':'horizontal','curved':0,'rounded':0};size=65;" vertex="1" parent="1">
          <mxGeometry x="20" y="620" width="1986" height="150" as="geometry" />
        </mxCell>
        <!-- Colors Lifeline -->
        <mxCell id="bIZ90OsPnnWlnqj1VHfi-5" value="Colors" style="shape=umlLifeline;perimeter=lifelinePerimeter;whiteSpace=wrap;container=1;dropTarget=0;collapsible=0;recursiveResize=0;outlineConnect=0;portConstraint=northsouth;newEdgeStyle={'edgeStyle':'elbowEdgeStyle','elbow':'horizontal','curved':0,'rounded':0};size=65;" vertex="1" parent="1">
          <mxGeometry x="20" y="820" width="1986" height="150" as="geometry" />
        </mxCell>
        <!-- Listly Lifeline -->
        <mxCell id="bIZ90OsPnnWlnqj1VHfi-6" value="Listly" style="shape=umlLifeline;perimeter=lifelinePerimeter;whiteSpace=wrap;container=1;dropTarget=0;collapsible=0;recursiveResize=0;outlineConnect=0;portConstraint=northsouth;newEdgeStyle={'edgeStyle':'elbowEdgeStyle','elbow':'horizontal','curved':0,'rounded':0};size=65;" vertex="1" parent="1">
          <mxGeometry x="20" y="1020" width="1986" height="150" as="geometry" />
        </mxCell>
        <!-- Messages -->
        <!-- Playlist -> LinkedList: addSong(Song) -->
        <mxCell id="bIZ90OsPnnWlnqj1VHfi-7" value="addSong(Song)" style="align=left;edgeStyle=elbowEdgeStyle;elbow=horizontal;curved=0;rounded=0;endArrow=block;" edge="1" parent="1" source="bIZ90OsPnnWlnqj1VHfi-1" target="bIZ90OsPnnWlnqj1VHfi-2">
          <mxGeometry relative="1" as="geometry">
            <Array as="points">
              <mxPoint x="176" y="185" />
            </Array>
          </mxGeometry>
        </mxCell>
        <!-- LinkedList -> Node: add(Song) -->
        <mxCell id="bIZ90OsPnnWlnqj1VHfi-8" value="add(Song)" style="align=left;edgeStyle=elbowEdgeStyle;elbow=horizontal;curved=0;rounded=0;endArrow=block;" edge="1" parent="1" source="bIZ90OsPnnWlnqj1VHfi-2" target="bIZ90OsPnnWlnqj1VHfi-3">
          <mxGeometry relative="1" as="geometry">
            <Array as="points">
              <mxPoint x="228" y="385" />
            </Array>
          </mxGeometry>
        </mxCell>
        <!-- Node -> LinkedList: Node (return) -->
        <mxCell id="bIZ90OsPnnWlnqj1VHfi-9" value="Node" style="align=left;edgeStyle=elbowEdgeStyle;elbow=horizontal;curved=0;rounded=0;dashed=1;dashPattern=2 3;endArrow=block;" edge="1" parent="1" source="bIZ90OsPnnWlnqj1VHfi-3" target="bIZ90OsPnnWlnqj1VHfi-2">
          <mxGeometry relative="1" as="geometry">
            <Array as="points">
              <mxPoint x="280" y="385" />
            </Array>
          </mxGeometry>
        </mxCell>
        <!-- Playlist -> LinkedList: removeSong(Song) -->
        <mxCell id="bIZ90OsPnnWlnqj1VHfi-10" value="removeSong(Song)" style="align=left;edgeStyle=elbowEdgeStyle;elbow=horizontal;curved=0;rounded=0;endArrow=block;" edge="1" parent="1" source="bIZ90OsPnnWlnqj1VHfi-1" target="bIZ90OsPnnWlnqj1VHfi-2">
          <mxGeometry relative="1" as="geometry">
            <Array as="points">
              <mxPoint x="332" y="185" />
            </Array>
          </mxGeometry>
        </mxCell>
        <!-- LinkedList -> Node: remove(int) -->
        <mxCell id="bIZ90OsPnnWlnqj1VHfi-11" value="remove(int)" style="align=left;edgeStyle=elbowEdgeStyle;elbow=horizontal;curved=0;rounded=0;endArrow=block;" edge="1" parent="1" source="bIZ90OsPnnWlnqj1VHfi-2" target="bIZ90OsPnnWlnqj1VHfi-3">
          <mxGeometry relative="1" as="geometry">
            <Array as="points">
              <mxPoint x="384" y="385" />
            </Array>
          </mxGeometry>
        </mxCell>
        <!-- Node -> Playlist: Song (return) -->
        <mxCell id="bIZ90OsPnnWlnqj1VHfi-12" value="Song" style="align=left;edgeStyle=elbowEdgeStyle;elbow=horizontal;curved=0;rounded=0;dashed=1;dashPattern=2 3;endArrow=block;" edge="1" parent="1" source="bIZ90OsPnnWlnqj1VHfi-3" target="bIZ90OsPnnWlnqj1VHfi-1">
          <mxGeometry relative="1" as="geometry">
            <Array as="points">
              <mxPoint x="436" y="285" />
            </Array>
          </mxGeometry>
        </mxCell>
        <!-- Playlist -> LinkedList: printPlaylist() -->
        <mxCell id="bIZ90OsPnnWlnqj1VHfi-13" value="printPlaylist()" style="align=left;edgeStyle=elbowEdgeStyle;elbow=horizontal;curved=0;rounded=0;endArrow=block;" edge="1" parent="1" source="bIZ90OsPnnWlnqj1VHfi-1" target="bIZ90OsPnnWlnqj1VHfi-2">
          <mxGeometry relative="1" as="geometry">
            <Array as="points">
              <mxPoint x="488" y="185" />
            </Array>
          </mxGeometry>
        </mxCell>
        <!-- LinkedList -> Playlist: display UI -->
        <mxCell id="bIZ90OsPnnWlnqj1VHfi-14" value="display UI" style="align=left;edgeStyle=elbowEdgeStyle;elbow=horizontal;curved=0;rounded=0;endArrow=block;" edge="1" parent="1" source="bIZ90OsPnnWlnqj1VHfi-2" target="bIZ90OsPnnWlnqj1VHfi-1">
          <mxGeometry relative="1" as="geometry">
            <Array as="points">
              <mxPoint x="540" y="185" />
            </Array>
          </mxGeometry>
        </mxCell>
        <!-- Playlist self-call: play(Runnable) -->
        <mxCell id="bIZ90OsPnnWlnqj1VHfi-15" value="play(Runnable)" style="curved=1;endArrow=block;rounded=0;" edge="1" parent="1" source="bIZ90OsPnnWlnqj1VHfi-1" target="bIZ90OsPnnWlnqj1VHfi-1">
          <mxGeometry relative="1" as="geometry">
            <Array as="points">
              <mxPoint x="641" y="120" />
              <mxPoint x="671" y="120" />
            </Array>
          </mxGeometry>
        </mxCell>
        <!-- Playlist self-call: pausePlayback() -->
        <mxCell id="bIZ90OsPnnWlnqj1VHfi-16" value="pausePlayback()" style="curved=1;endArrow=block;rounded=0;" edge="1" parent="1" source="bIZ90OsPnnWlnqj1VHfi-1" target="bIZ90OsPnnWlnqj1VHfi-1">
          <mxGeometry relative="1" as="geometry">
            <Array as="points">
              <mxPoint x="723" y="120" />
              <mxPoint x="753" y="120" />
            </Array>
          </mxGeometry>
        </mxCell>
        <!-- Playlist self-call: resumePlayback(Runnable) -->
        <mxCell id="bIZ90OsPnnWlnqj1VHfi-17" value="resumePlayback(Runnable)" style="curved=1;endArrow=block;rounded=0;" edge="1" parent="1" source="bIZ90OsPnnWlnqj1VHfi-1" target="bIZ90OsPnnWlnqj1VHfi-1">
          <mxGeometry relative="1" as="geometry">
            <Array as="points">
              <mxPoint x="805" y="120" />
              <mxPoint x="835" y="120" />
            </Array>
          </mxGeometry>
        </mxCell>
        <!-- Playlist self-call: stopPlayback() -->
        <mxCell id="bIZ90OsPnnWlnqj1VHfi-18" value="stopPlayback()" style="curved=1;endArrow=block;rounded=0;" edge="1" parent="1" source="bIZ90OsPnnWlnqj1VHfi-1" target="bIZ90OsPnnWlnqj1VHfi-1">
          <mxGeometry relative="1" as="geometry">
            <Array as="points">
              <mxPoint x="887" y="120" />
              <mxPoint x="917" y="120" />
            </Array>
          </mxGeometry>
        </mxCell>
        <!-- Colors self-call: RESET: String -->
        <mxCell id="bIZ90OsPnnWlnqj1VHfi-19" value="RESET: String" style="curved=1;endArrow=block;rounded=0;" edge="1" parent="1" source="bIZ90OsPnnWlnqj1VHfi-5" target="bIZ90OsPnnWlnqj1VHfi-5">
          <mxGeometry relative="1" as="geometry">
            <Array as="points">
              <mxPoint x="1018" y="920" />
              <mxPoint x="1048" y="920" />
            </Array>
          </mxGeometry>
        </mxCell>
        <!-- Colors self-call: GREEN: String -->
        <mxCell id="bIZ90OsPnnWlnqj1VHfi-20" value="GREEN: String" style="curved=1;endArrow=block;rounded=0;" edge="1" parent="1" source="bIZ90OsPnnWlnqj1VHfi-5" target="bIZ90OsPnnWlnqj1VHfi-5">
          <mxGeometry relative="1" as="geometry">
            <Array as="points">
              <mxPoint x="1100" y="920" />
              <mxPoint x="1130" y="920" />
            </Array>
          </mxGeometry>
        </mxCell>
        <!-- Colors self-call: RED: String -->
        <mxCell id="bIZ90OsPnnWlnqj1VHfi-21" value="RED: String" style="curved=1;endArrow=block;rounded=0;" edge="1" parent="1" source="bIZ90OsPnnWlnqj1VHfi-5" target="bIZ90OsPnnWlnqj1VHfi-5">
          <mxGeometry relative="1" as="geometry">
            <Array as="points">
              <mxPoint x="1182" y="920" />
              <mxPoint x="1212" y="920" />
            </Array>
          </mxGeometry>
        </mxCell>
        <!-- Colors self-call: YELLOW: String -->
        <mxCell id="bIZ90OsPnnWlnqj1VHfi-22" value="YELLOW: String" style="curved=1;endArrow=block;rounded=0;" edge="1" parent="1" source="bIZ90OsPnnWlnqj1VHfi-5" target="bIZ90OsPnnWlnqj1VHfi-5">
          <mxGeometry relative="1" as="geometry">
            <Array as="points">
              <mxPoint x="1264" y="920" />
              <mxPoint x="1294" y="920" />
            </Array>
          </mxGeometry>
        </mxCell>
        <!-- Colors self-call: BLUE: String -->
        <mxCell id="bIZ90OsPnnWlnqj1VHfi-23" value="BLUE: String" style="curved=1;endArrow=block;rounded=0;" edge="1" parent="1" source="bIZ90OsPnnWlnqj1VHfi-5" target="bIZ90OsPnnWlnqj1VHfi-5">
          <mxGeometry relative="1" as="geometry">
            <Array as="points">
              <mxPoint x="1346" y="920" />
              <mxPoint x="1376" y="920" />
            </Array>
          </mxGeometry>
        </mxCell>
        <!-- Colors self-call: BOLD_GREEN: String -->
        <mxCell id="bIZ90OsPnnWlnqj1VHfi-24" value="BOLD_GREEN: String" style="curved=1;endArrow=block;rounded=0;" edge="1" parent="1" source="bIZ90OsPnnWlnqj1VHfi-5" target="bIZ90OsPnnWlnqj1VHfi-5">
          <mxGeometry relative="1" as="geometry">
            <Array as="points">
              <mxPoint x="1428" y="920" />
              <mxPoint x="1458" y="920" />
            </Array>
          </mxGeometry>
        </mxCell>
        <!-- Colors self-call: BG_GREEN: String -->
        <mxCell id="bIZ90OsPnnWlnqj1VHfi-25" value="BG_GREEN: String" style="curved=1;endArrow=block;rounded=0;" edge="1" parent="1" source="bIZ90OsPnnWlnqj1VHfi-5" target="bIZ90OsPnnWlnqj1VHfi-5">
          <mxGeometry relative="1" as="geometry">
            <Array as="points">
              <mxPoint x="1510" y="920" />
              <mxPoint x="1540" y="920" />
            </Array>
          </mxGeometry>
        </mxCell>
        <!-- Listly -> Playlist: handleCommand(Playlist,String) -->
        <mxCell id="bIZ90OsPnnWlnqj1VHfi-26" value="handleCommand(Playlist,String)" style="align=left;edgeStyle=elbowEdgeStyle;elbow=horizontal;curved=0;rounded=0;endArrow=block;" edge="1" parent="1" source="bIZ90OsPnnWlnqj1VHfi-6" target="bIZ90OsPnnWlnqj1VHfi-1">
          <mxGeometry relative="1" as="geometry">
            <Array as="points">
              <mxPoint x="1641" y="585" />
            </Array>
          </mxGeometry>
        </mxCell>
        <!-- Listly -> Playlist: parseExtendedCommand(Playlist,char,String,Runnable) -->
        <mxCell id="bIZ90OsPnnWlnqj1VHfi-27" value="parseExtendedCommand(Playlist,char,String,Runnable)" style="align=left;edgeStyle=elbowEdgeStyle;elbow=horizontal;curved=0;rounded=0;endArrow=block;" edge="1" parent="1" source="bIZ90OsPnnWlnqj1VHfi-6" target="bIZ90OsPnnWlnqj1VHfi-1">
          <mxGeometry relative="1" as="geometry">
            <Array as="points">
              <mxPoint x="1693" y="585" />
            </Array>
          </mxGeometry>
        </mxCell>
        <!-- Listly -> Playlist: printHeader() -->
        <mxCell id="bIZ90OsPnnWlnqj1VHfi-28" value="printHeader()" style="align=left;edgeStyle=elbowEdgeStyle;elbow=horizontal;curved=0;rounded=0;endArrow=block;" edge="1" parent="1" source="bIZ90OsPnnWlnqj1VHfi-6" target="bIZ90OsPnnWlnqj1VHfi-1">
          <mxGeometry relative="1" as="geometry">
            <Array as="points">
              <mxPoint x="1745" y="585" />
            </Array>
          </mxGeometry>
        </mxCell>
        <!-- Listly -> Playlist: readInput() -->
        <mxCell id="bIZ90OsPnnWlnqj1VHfi-29" value="readInput()" style="align=left;edgeStyle=elbowEdgeStyle;elbow=horizontal;curved=0;rounded=0;endArrow=block;" edge="1" parent="1" source="bIZ90OsPnnWlnqj1VHfi-6" target="bIZ90OsPnnWlnqj1VHfi-1">
          <mxGeometry relative="1" as="geometry">
            <Array as="points">
              <mxPoint x="1797" y="585" />
            </Array>
          </mxGeometry>
        </mxCell>
        <!-- Listly -> Playlist: clearScreen() -->
        <mxCell id="bIZ90OsPnnWlnqj1VHfi-30" value="clearScreen()" style="align=left;edgeStyle=elbowEdgeStyle;elbow=horizontal;curved=0;rounded=0;endArrow=block;" edge="1" parent="1" source="bIZ90OsPnnWlnqj1VHfi-6" target="bIZ90OsPnnWlnqj1VHfi-1">
          <mxGeometry relative="1" as="geometry">
            <Array as="points">
              <mxPoint x="1849" y="585" />
            </Array>
          </mxGeometry>
        </mxCell>
        <!-- Listly -> Playlist: sleep() -->
        <mxCell id="bIZ90OsPnnWlnqj1VHfi-31" value="sleep()" style="align=left;edgeStyle=elbowEdgeStyle;elbow=horizontal;curved=0;rounded=0;endArrow=block;" edge="1" parent="1" source="bIZ90OsPnnWlnqj1VHfi-6" target="bIZ90OsPnnWlnqj1VHfi-1">
          <mxGeometry relative="1" as="geometry">
            <Array as="points">
              <mxPoint x="1901" y="585" />
            </Array>
          </mxGeometry>
        </mxCell>
        <!-- Annotations -->
        <!-- Actions related to playlist management -->
        <mxCell id="bIZ90OsPnnWlnqj1VHfi-32" value="Actions related to playlist management" style="fillColor=#ffff88;strokeColor=#9E916F;" vertex="1" parent="1">
          <mxGeometry x="176" y="170" width="298" height="49" as="geometry" />
        </mxCell>
        <!-- Actions related to playback control -->
        <mxCell id="bIZ90OsPnnWlnqj1VHfi-33" value="Actions related to playback control" style="fillColor=#ffff88;strokeColor=#9E916F;" vertex="1" parent="1">
          <mxGeometry x="641" y="70" width="267" height="49" as="geometry" />
        </mxCell>
        <!-- Color constants -->
        <mxCell id="bIZ90OsPnnWlnqj1VHfi-34" value="Color constants" style="fillColor=#ffff88;strokeColor=#9E916F;" vertex="1" parent="1">
          <mxGeometry x="1018" y="870" width="150" height="49" as="geometry" />
        </mxCell>
        <!-- Operations to handle user interface -->
        <mxCell id="bIZ90OsPnnWlnqj1VHfi-35" value="Operations to handle user interface" style="fillColor=#ffff88;strokeColor=#9E916F;" vertex="1" parent="1">
          <mxGeometry x="1641" y="1070" width="269" height="49" as="geometry" />
        </mxCell>
      </root>
    </mxGraphModel>
  </diagram>
</mxfile>
```
